<svg width="40" height="40" viewBox="0 0 40 40" fill="none" xmlns="http://www.w3.org/2000/svg">
<path d="M36.5597 9.25486C35.8005 8.86719 35.0091 8.54414 34.1853 8.26954V27.7012C32.3439 27.039 30.454 26.6998 28.5318 26.6998C25.4628 26.6998 22.4261 27.572 19.6479 29.2519V9.70713C17.0311 8.20493 14.0106 7.31653 10.7639 7.31653C7.87258 7.31653 5.14278 8.02725 2.73603 9.25486C2.203 9.5133 1.87994 10.0786 1.87994 10.6763V30.1888C1.87994 31.1256 2.63912 31.7879 3.49521 31.7879C3.75365 31.7879 4.0121 31.7233 4.27054 31.594C6.22501 30.5764 8.42177 29.9303 10.7639 29.9303C14.1075 29.9303 17.1927 31.2548 19.6479 33.1609C22.1031 31.2548 25.1882 29.9303 28.5318 29.9303C30.874 29.9303 33.0707 30.5764 35.0252 31.6102C35.2837 31.7394 35.5421 31.804 35.8005 31.804C36.6405 31.804 37.4158 31.1418 37.4158 30.2049V10.6763C37.4158 10.0786 37.0927 9.5133 36.5597 9.25486ZM16.4173 27.7012C14.5759 27.039 12.6861 26.6998 10.7639 26.6998C8.84174 26.6998 6.95188 27.039 5.11048 27.7012V11.6939C6.90342 10.9347 8.79328 10.5471 10.7639 10.5471C12.7022 10.5471 14.6244 10.9509 16.4173 11.7101V27.7012ZM30.9547 1.66309L22.8784 9.73944V25.0845L30.9547 17.8158V1.66309Z" fill="white"/>
</svg>
