<svg width="20" height="20" viewBox="0 0 20 20" fill="none" xmlns="http://www.w3.org/2000/svg">
<path d="M9.8843 0.179688C4.5236 0.179688 0.176788 4.5265 0.176788 9.88722V17.4375C0.176788 18.624 1.14754 19.5947 2.33401 19.5947H6.64847V10.9658H2.33401V9.88722C2.33401 5.71298 5.71007 2.33692 9.8843 2.33692C14.0585 2.33692 17.4346 5.71298 17.4346 9.88722V10.9658H13.1201V19.5947H17.4346C18.6211 19.5947 19.5918 18.624 19.5918 17.4375V9.88722C19.5918 4.5265 15.245 0.179688 9.8843 0.179688ZM4.49124 13.1231V17.4375H2.33401V13.1231H4.49124ZM17.4346 17.4375H15.2774V13.1231H17.4346V17.4375Z" fill="white"/>
</svg>
