<svg width="30" height="38" viewBox="0 0 30 38" fill="none" xmlns="http://www.w3.org/2000/svg">
<path d="M18.6667 0.666748H4.00001C1.98334 0.666748 0.351677 2.31675 0.351677 4.33341L0.333344 33.6667C0.333344 35.6834 1.96501 37.3334 3.98168 37.3334H26C28.0167 37.3334 29.6667 35.6834 29.6667 33.6667V11.6667L18.6667 0.666748ZM4.00001 4.33341H16.8333L26 13.5001V29.2301L22.6267 25.8567C24.9733 22.3001 24.5883 17.4784 21.4533 14.3434C19.675 12.5651 17.3467 11.6667 15 11.6667C12.6533 11.6667 10.325 12.5651 8.52834 14.3434C4.95334 17.9184 4.95334 23.7117 8.52834 27.2684C10.3067 29.0467 12.6533 29.9451 15 29.9451C16.76 29.9451 18.52 29.4317 20.0417 28.4234L25.2667 33.6667H4.00001V4.33341ZM18.8683 24.6834C17.8417 25.7101 16.4667 26.2967 15 26.2967C13.5333 26.2967 12.1583 25.7284 11.1317 24.6834C10.105 23.6567 9.51834 22.2817 9.51834 20.8151C9.51834 19.3484 10.0867 17.9734 11.1317 16.9467C12.1583 15.9017 13.5333 15.3334 15 15.3334C16.4667 15.3334 17.8417 15.9017 18.8683 16.9467C19.895 17.9734 20.4817 19.3484 20.4817 20.8151C20.4817 22.2817 19.9133 23.6567 18.8683 24.6834Z" fill="#FCEFE6"/>
</svg>
