<svg width="28" height="28" viewBox="0 0 28 28" fill="none" xmlns="http://www.w3.org/2000/svg">
<path d="M21.4652 5.15723C20.5319 5.15723 19.8652 5.82197 19.8652 6.75261C19.8652 7.68325 20.5319 8.34799 21.4652 8.34799C22.3985 8.34799 23.0651 7.68325 23.0651 6.75261C23.0651 5.82197 22.2651 5.15723 21.4652 5.15723Z" fill="white"/>
<path d="M14.132 7.15088C10.3989 7.15088 7.3324 10.209 7.3324 13.9319C7.3324 17.6548 10.3989 20.713 14.132 20.713C17.8652 20.713 20.9317 17.6548 20.9317 13.9319C21.065 10.209 17.9985 7.15088 14.132 7.15088ZM14.132 18.4526C11.7322 18.4526 9.73227 16.4582 9.73227 14.0649C9.73227 11.6716 11.7322 9.67714 14.132 9.67714C16.5319 9.67714 18.5318 11.6716 18.5318 14.0649C18.5318 16.4582 16.5319 18.4526 14.132 18.4526Z" fill="white"/>
<path d="M19.5985 27.8928H8.53239C3.86596 27.8928 0.132812 24.17 0.132812 19.5166V8.48122C0.132812 3.82776 3.86596 0.10498 8.53239 0.10498H19.5985C24.2649 0.10498 27.9981 3.82776 27.9981 8.48122V19.5166C27.9981 24.17 24.2649 27.8928 19.5985 27.8928ZM8.53239 2.7641C5.33255 2.7641 2.79935 5.29027 2.79935 8.48122V19.5166C2.79935 22.7075 5.33255 25.2337 8.53239 25.2337H19.5985C22.7984 25.2337 25.3316 22.7075 25.3316 19.5166V8.48122C25.3316 5.29027 22.7984 2.7641 19.5985 2.7641H8.53239Z" fill="white"/>
</svg>
