<svg width="548" height="491" viewBox="0 0 548 491" fill="none" xmlns="http://www.w3.org/2000/svg">
<g filter="url(#filter0_f_0_1)">
<rect x="384.776" y="94.7781" width="35" height="35" rx="17.5" transform="rotate(32.4436 384.776 94.7781)" fill="#7D7D7D"/>
</g>
<g filter="url(#filter1_f_0_1)">
<rect x="31.7764" y="165.432" width="35" height="35" rx="17.5" transform="rotate(32.4436 31.7764 165.432)" fill="#F7AE75"/>
</g>
<g filter="url(#filter2_f_0_1)">
<rect x="198.766" y="50" width="35" height="35" rx="17.5" transform="rotate(32.4436 198.766 50)" fill="#3EB595"/>
</g>
<g filter="url(#filter3_f_0_1)">
<rect x="65.1631" y="373.877" width="35" height="35" rx="17.5" transform="rotate(32.4436 65.1631 373.877)" fill="#F4D45D"/>
</g>
<g filter="url(#filter4_f_0_1)">
<rect x="480.052" y="291.612" width="35" height="35" rx="17.5" transform="rotate(32.4436 480.052 291.612)" fill="#1B6578"/>
</g>
<g filter="url(#filter5_f_0_1)">
<rect x="331.864" y="429.66" width="35" height="35" rx="17.5" transform="rotate(32.4436 331.864 429.66)" fill="#EB7A7D"/>
</g>
<rect x="415" y="66" width="77.5556" height="77.5556" rx="38.7778" fill="#7D7D7D"/>
<path d="M470.56 94.255C469.801 93.8673 469.009 93.5443 468.185 93.2697V112.701C466.344 112.039 464.454 111.7 462.532 111.7C459.463 111.7 456.426 112.572 453.648 114.252V94.7073C451.031 93.2051 448.011 92.3167 444.764 92.3167C441.873 92.3167 439.143 93.0274 436.736 94.255C436.203 94.5134 435.88 95.0788 435.88 95.6764V115.189C435.88 116.126 436.639 116.788 437.495 116.788C437.754 116.788 438.012 116.723 438.271 116.594C440.225 115.577 442.422 114.93 444.764 114.93C448.108 114.93 451.193 116.255 453.648 118.161C456.103 116.255 459.188 114.93 462.532 114.93C464.874 114.93 467.071 115.577 469.025 116.61C469.284 116.74 469.542 116.804 469.801 116.804C470.64 116.804 471.416 116.142 471.416 115.205V95.6764C471.416 95.0788 471.093 94.5134 470.56 94.255ZM450.417 112.701C448.576 112.039 446.686 111.7 444.764 111.7C442.842 111.7 440.952 112.039 439.11 112.701V96.694C440.903 95.9349 442.793 95.5472 444.764 95.5472C446.702 95.5472 448.624 95.951 450.417 96.7102V112.701ZM464.955 86.6632L456.878 94.7396V110.085L464.955 102.816V86.6632Z" fill="white"/>
<rect x="191" width="50.5556" height="50.5556" rx="25.2778" fill="#F7AE75"/>
<path d="M215.884 16.1796C210.524 16.1796 206.177 20.5264 206.177 25.8871V33.4374C206.177 34.6239 207.148 35.5946 208.334 35.5946H212.648V26.9657H208.334V25.8871C208.334 21.7129 211.71 18.3368 215.884 18.3368C220.059 18.3368 223.435 21.7129 223.435 25.8871V26.9657H219.12V35.5946H223.435C224.621 35.5946 225.592 34.6239 225.592 33.4374V25.8871C225.592 20.5264 221.245 16.1796 215.884 16.1796ZM210.491 29.1229V33.4374H208.334V29.1229H210.491ZM223.435 33.4374H221.277V29.1229H223.435V33.4374Z" fill="white"/>
<rect x="479" y="210" width="50.5556" height="50.5556" rx="25.2778" fill="#3EB595"/>
<path d="M494.177 227.258C494.177 226.665 494.663 226.179 495.256 226.179H496.335C496.93 226.179 497.413 225.696 497.413 225.101V225.101C497.413 224.505 496.93 224.022 496.335 224.022H495.256C493.466 224.022 492.02 225.467 492.02 227.258V228.336C492.02 228.932 492.503 229.415 493.099 229.415V229.415C493.695 229.415 494.177 228.932 494.177 228.336V227.258Z" fill="white"/>
<path d="M494.177 244.515V243.437C494.177 242.841 493.695 242.358 493.099 242.358V242.358C492.503 242.358 492.02 242.841 492.02 243.437V244.515C492.02 246.306 493.466 247.751 495.256 247.751H496.335C496.93 247.751 497.413 247.268 497.413 246.673V246.673C497.413 246.077 496.93 245.594 496.335 245.594H495.256C494.663 245.594 494.177 245.109 494.177 244.515Z" fill="white"/>
<path d="M512.514 224.022H511.435C510.84 224.022 510.357 224.505 510.357 225.1V225.1C510.357 225.696 510.84 226.179 511.435 226.179H512.514C513.107 226.179 513.593 226.664 513.593 227.258V228.336C513.593 228.932 514.076 229.415 514.671 229.415V229.415C515.267 229.415 515.75 228.932 515.75 228.336V227.258C515.75 225.467 514.305 224.022 512.514 224.022Z" fill="white"/>
<path d="M513.593 244.515C513.593 245.109 513.107 245.594 512.514 245.594H511.435C510.84 245.594 510.357 246.077 510.357 246.673V246.673C510.357 247.268 510.84 247.751 511.435 247.751H512.514C514.305 247.751 515.75 246.306 515.75 244.515V243.437C515.75 242.841 515.267 242.358 514.671 242.358V242.358C514.076 242.358 513.593 242.841 513.593 243.437V244.515Z" fill="white"/>
<path d="M511.435 238.983V232.791C511.435 232.015 511.025 231.303 510.356 230.925L504.963 227.819C504.629 227.625 504.262 227.528 503.885 227.528C503.507 227.528 503.141 227.625 502.806 227.819L497.413 230.915C496.744 231.303 496.334 232.015 496.334 232.791V238.983C496.334 239.759 496.744 240.471 497.413 240.849L502.806 243.955C503.141 244.149 503.507 244.246 503.885 244.246C504.262 244.246 504.629 244.149 504.963 243.955L510.356 240.849C511.025 240.471 511.435 239.759 511.435 238.983ZM502.806 237.74C502.806 239.396 501.01 240.43 499.574 239.605V239.605C498.905 239.22 498.492 238.507 498.492 237.736V237.736C498.492 236.074 500.299 235.041 501.735 235.878V235.878C502.397 236.264 502.806 236.973 502.806 237.74V237.74ZM504.964 234.006C504.297 234.395 503.472 234.395 502.806 234.006V234.006C501.384 233.177 501.39 231.121 502.816 230.3V230.3C503.478 229.919 504.292 229.919 504.953 230.3V230.3C506.38 231.121 506.385 233.177 504.964 234.006V234.006ZM509.278 237.736C509.278 238.507 508.864 239.22 508.196 239.605V239.605C506.76 240.43 504.963 239.396 504.963 237.74V237.74C504.963 236.973 505.372 236.264 506.035 235.878V235.878C507.471 235.041 509.278 236.074 509.278 237.736V237.736Z" fill="white"/>
<rect x="37.0001" y="86" width="99" height="99" rx="49.5" fill="#F4D45D"/>
<path d="M67.4757 130.207V141.975H75.3209L85.1275 151.781V120.4L75.3209 130.207H67.4757ZM81.2049 129.874V142.308L76.9488 138.052H71.3983V134.13H76.9488L81.2049 129.874ZM93.9534 136.091C93.9534 132.619 91.9529 129.638 89.0501 128.187V143.975C91.9529 142.544 93.9534 139.562 93.9534 136.091ZM89.0501 118.89V122.93C94.7183 124.617 98.8567 129.874 98.8567 136.091C98.8567 142.308 94.7183 147.565 89.0501 149.251V153.292C96.915 151.507 102.779 144.485 102.779 136.091C102.779 127.696 96.915 120.675 89.0501 118.89V118.89Z" fill="white"/>
<rect x="303" y="361" width="85.5556" height="85.5556" rx="42.7778" fill="#1B6578"/>
<path d="M339.944 410.989C340.789 410.989 341.481 411.685 341.481 412.535C341.481 414.234 340.098 415.625 338.407 415.625C338.146 415.625 337.9 415.594 337.639 415.548C338.115 414.698 338.407 413.678 338.407 412.535C338.407 411.685 339.099 410.989 339.944 410.989ZM357.88 390.901C357.48 390.901 357.096 391.055 356.789 391.349L343.018 405.195L347.244 409.444L361.015 395.598C361.615 394.996 361.615 394.022 361.015 393.42L358.956 391.349C358.648 391.04 358.264 390.901 357.88 390.901V390.901ZM339.944 407.899C337.393 407.899 335.333 409.969 335.333 412.535C335.333 414.559 333.55 415.625 332.259 415.625C333.673 417.51 336.086 418.716 338.407 418.716C341.804 418.716 344.555 415.95 344.555 412.535C344.555 409.969 342.495 407.899 339.944 407.899Z" fill="white"/>
<rect x="103" y="363" width="67.5556" height="67.5556" rx="33.7778" fill="#EB7A7D"/>
<path d="M133.37 394.22L132.015 397.189L129.046 398.544L132.015 399.899L133.37 402.868L134.725 399.899L137.694 398.544L134.725 397.189L133.37 394.22ZM144.915 384.131L147.797 389.896H143.474L140.591 384.131H137.708L140.591 389.896H136.267L133.384 384.131H130.502L133.384 389.896H129.06L126.178 384.131H124.737C123.151 384.131 121.868 385.428 121.868 387.014L121.854 404.309C121.854 405.895 123.151 407.192 124.737 407.192H147.797C149.383 407.192 150.666 405.895 150.666 404.309V384.131H144.915ZM147.797 404.309H124.737V387.691L127.273 392.779H142.018L141.11 394.754L139.135 395.662L141.11 396.57L142.018 398.544L142.926 396.57L144.9 395.662L142.926 394.754L142.018 392.779H147.797V404.309Z" fill="white"/>
<rect x="327" y="24" width="35" height="35" rx="17.5" fill="#7D7D7D"/>
<rect x="67.0001" y="273" width="35" height="35" rx="17.5" fill="#F7AE75"/>
<rect x="146" y="86" width="35" height="35" rx="17.5" fill="#3EB595"/>
<rect x="207" y="431" width="35" height="35" rx="17.5" fill="#F4D45D"/>
<rect x="513" y="139" width="35" height="35" rx="17.5" fill="#1B6578"/>
<rect x="462" y="335" width="35" height="35" rx="17.5" fill="#EB7A7D"/>
<path d="M197.509 264.151V237.503C214.343 239.048 218.68 253.08 218.745 259.903C212.567 261.293 202.014 263.314 197.509 264.151Z" fill="#EB7A7D"/>
<path d="M259.477 289.253C236.312 269.171 211.345 272.904 201.757 277.281C200.212 273.574 198.925 269.815 198.475 268.399C235.231 254.959 262.051 275.286 270.867 287.129C265.925 288.056 261.215 288.931 259.477 289.253Z" fill="#3EB595"/>
<path d="M207.162 289.06L202.722 280.757C230.212 271.025 249.696 283.782 256.003 291.377C253.377 294.003 249.375 295.561 247.702 296.011C232.103 284.889 214.176 286.743 207.162 289.06Z" fill="#1B6578"/>
<path d="M244.42 299.68C241.64 303.542 236.569 312.618 234.381 316.673C224.188 310.957 213.532 298.2 209.478 292.536C229.864 286.82 241.267 294.917 244.42 299.68Z" fill="#1B6578"/>
<path d="M333.8 300.26C322.681 316.016 299.824 323.817 289.786 325.748C293.492 301.187 311.793 292.986 320.48 291.957C325.268 294.583 331.355 298.586 333.8 300.26Z" fill="#1B6578"/>
<path d="M316.04 288.095C309.863 281.761 305.229 272.969 303.685 269.364C287.932 274.462 279.747 285.005 277.624 289.639C281.485 294.119 286.697 307.983 288.82 314.356C294.689 299.526 309.412 290.669 316.04 288.095Z" fill="#3EB595"/>
<path d="M336.117 296.398C321.6 293.154 310.635 275.865 306.967 267.626C327.044 260.675 344.418 265.245 350.595 268.399C348.279 282.147 339.978 292.793 336.117 296.398Z" fill="#1B6578"/>
<path d="M351.947 263.957C344.997 263.803 334.508 261.19 330.132 259.902C333.028 255.847 335.152 248.896 345.19 250.827C353.221 252.372 353.041 260.224 351.947 263.957Z" fill="#3EB595"/>
<path d="M303.685 223.794C300.287 243.876 284.509 250.312 277.045 251.02C276.272 260.134 276.723 276.316 277.045 283.267C291.253 266.275 315.783 260.353 326.272 259.517C329.051 230.475 312.372 223.601 303.685 223.794Z" fill="#3EB595"/>
<path d="M272.798 283.267C259.053 269.055 242.232 263.185 235.54 262.027C245.887 257.392 254.265 248.51 257.161 244.648C258.551 245.884 268.165 249.282 272.798 250.827V283.267Z" fill="#3EB595"/>
<path d="M245.964 214.139C244.729 228.196 250.468 238.405 253.493 241.752C241.91 258.899 228.847 260.611 223.764 259.323C221.447 247.738 223.442 234.8 224.729 229.78C231.215 216.649 241.588 213.881 245.964 214.139Z" fill="#EB7A7D"/>
<path d="M249.246 213.56C248.924 220.64 249.748 235.38 255.616 237.697C259.863 230.295 264.535 215.104 249.246 213.56Z" fill="#F4D45D"/>
<path d="M263.338 202.746C262.721 207.226 260.636 212.208 259.67 214.139C255.346 212.285 251.241 209.698 249.825 208.539C249.207 200.815 250.34 197.468 250.983 196.76C255.308 197.533 261.022 201.073 263.338 202.746Z" fill="#FBF6A8"/>
<path d="M290.751 195.216C281.948 198.46 276.401 207.123 274.728 211.05C274.02 210.342 272.103 208.192 270.095 205.257C268.087 202.322 269.516 199.271 270.481 198.112C271.446 197.018 274.381 194.018 278.396 190.774C282.411 187.53 288.306 192.384 290.751 195.216Z" fill="#FBF6A8"/>
<path d="M276.466 246.386C276.787 239.048 281.948 224.296 300.017 223.987C299.052 231.453 292.99 246.386 276.466 246.386Z" fill="#F4D45D"/>
<path d="M351.754 235.38C344.186 205.102 316.169 196.76 303.106 196.374L302.334 219.739C325.345 222.365 330.068 241.945 329.553 251.407C340.982 243.992 349.373 248.703 352.14 251.986L351.754 235.38Z" fill="#EB7A7D"/>
<path d="M300.267 220.318V197.146C275.866 197.61 274.527 221.927 276.908 234.028C284.321 222.905 295.57 220.254 300.267 220.318Z" fill="#F4D45D"/>
<path d="M282.064 184.031L276.079 170.128C315.924 169.356 338.369 198.127 344.611 212.609C329.939 196.853 311.343 192.785 303.878 192.721C303.878 186.85 303.235 181.779 302.913 179.976C297.508 179.049 286.761 182.293 282.064 184.031Z" fill="#F7AE75"/>
<path d="M265.462 198.884C238.435 182.664 210.572 205.643 200.019 219.159C216.08 181.776 254.587 171.143 271.832 170.499C272.605 177.605 276.916 183.63 278.975 185.754L265.462 198.884Z" fill="#F7AE75"/>
<path d="M273.377 227.462C273.184 231.517 273.377 246.579 273.377 246.579C264.883 247.506 260.185 242.588 258.898 240.014C260.25 236.281 262.952 227.154 262.952 220.511C262.952 213.869 265.784 207.574 267.199 205.256C273.531 213.598 273.57 223.407 273.377 227.462Z" fill="#F4D45D"/>
<path d="M298.087 193.285C289.284 191.122 286.311 188.135 285.925 186.912C292.566 182.742 297.315 183.372 298.859 184.209C301.021 188.689 299.245 192.126 298.087 193.285Z" fill="#FBF6A8"/>
<path d="M213.532 241.172C209.208 236.229 201.563 233.963 198.282 233.448C197.767 230.938 199.671 222.905 211.409 210.856C223.146 198.807 239.336 196.696 245.964 197.146V210.084C242.747 209.633 234.381 210.972 226.659 219.932C218.938 228.891 219.195 242.46 220.289 248.124C219.838 247.866 217.856 246.116 213.532 241.172Z" fill="#F7AE75"/>
<path d="M286.118 324.783C284.573 329.108 278.782 327.486 276.079 326.134C276.079 310.841 267.328 297.234 262.952 292.343C266.968 290.952 271.446 290.862 273.184 290.991C280.713 297.17 288.048 319.376 286.118 324.783Z" fill="#1B6578"/>
<path d="M249.439 300.066C242.953 305.473 239.014 314.42 237.856 318.217C239.851 319.312 244.883 321.809 249.053 323.045C254.265 324.59 261.987 327.679 266.427 327.872C269.979 328.027 272.412 326.907 273.184 326.327C270.867 306.863 262.695 296.333 258.898 293.501C258.448 293.437 255.925 294.66 249.439 300.066Z" fill="#1B6578"/>
<defs>
<filter id="filter0_f_0_1" x="353.655" y="82.4326" width="73.0044" height="73.0045" filterUnits="userSpaceOnUse" color-interpolation-filters="sRGB">
<feFlood flood-opacity="0" result="BackgroundImageFix"/>
<feBlend mode="normal" in="SourceGraphic" in2="BackgroundImageFix" result="shape"/>
<feGaussianBlur stdDeviation="9.5" result="effect1_foregroundBlur_0_1"/>
</filter>
<filter id="filter1_f_0_1" x="0.654587" y="153.086" width="73.0044" height="73.0045" filterUnits="userSpaceOnUse" color-interpolation-filters="sRGB">
<feFlood flood-opacity="0" result="BackgroundImageFix"/>
<feBlend mode="normal" in="SourceGraphic" in2="BackgroundImageFix" result="shape"/>
<feGaussianBlur stdDeviation="9.5" result="effect1_foregroundBlur_0_1"/>
</filter>
<filter id="filter2_f_0_1" x="167.644" y="37.6545" width="73.0044" height="73.0045" filterUnits="userSpaceOnUse" color-interpolation-filters="sRGB">
<feFlood flood-opacity="0" result="BackgroundImageFix"/>
<feBlend mode="normal" in="SourceGraphic" in2="BackgroundImageFix" result="shape"/>
<feGaussianBlur stdDeviation="9.5" result="effect1_foregroundBlur_0_1"/>
</filter>
<filter id="filter3_f_0_1" x="34.0413" y="361.531" width="73.0044" height="73.0045" filterUnits="userSpaceOnUse" color-interpolation-filters="sRGB">
<feFlood flood-opacity="0" result="BackgroundImageFix"/>
<feBlend mode="normal" in="SourceGraphic" in2="BackgroundImageFix" result="shape"/>
<feGaussianBlur stdDeviation="9.5" result="effect1_foregroundBlur_0_1"/>
</filter>
<filter id="filter4_f_0_1" x="448.93" y="279.267" width="73.0044" height="73.0045" filterUnits="userSpaceOnUse" color-interpolation-filters="sRGB">
<feFlood flood-opacity="0" result="BackgroundImageFix"/>
<feBlend mode="normal" in="SourceGraphic" in2="BackgroundImageFix" result="shape"/>
<feGaussianBlur stdDeviation="9.5" result="effect1_foregroundBlur_0_1"/>
</filter>
<filter id="filter5_f_0_1" x="300.742" y="417.315" width="73.0044" height="73.0045" filterUnits="userSpaceOnUse" color-interpolation-filters="sRGB">
<feFlood flood-opacity="0" result="BackgroundImageFix"/>
<feBlend mode="normal" in="SourceGraphic" in2="BackgroundImageFix" result="shape"/>
<feGaussianBlur stdDeviation="9.5" result="effect1_foregroundBlur_0_1"/>
</filter>
</defs>
</svg>
