<svg width="35" height="41" viewBox="0 0 35 41" fill="none" xmlns="http://www.w3.org/2000/svg">
<path d="M20.5334 0.999728C14 0.199723 6.93338 2.73308 3.06672 8.73311C-0.399943 14.1998 0.400055 20.5998 2.93338 23.7999C3.73338 24.7332 4.66672 25.5332 5.73338 25.9332C6.26671 26.1999 6.80005 25.9332 6.93338 25.3999C7.20004 24.5999 7.33338 23.7999 7.46671 23.1332C7.60004 22.5998 7.33338 22.3332 6.93338 21.7998C3.86672 17.9332 5.46671 9.53311 12.2667 6.33309C18.2667 3.53308 27.6 5.39975 28.1333 13.9331C28.4 18.1998 27.0667 24.1999 23.6 26.7332C19.8667 29.5332 15.4667 26.8666 16.4 22.9999C17.6 18.4665 19.0667 15.3998 18.4 12.9998C17.4667 9.26645 12.2667 9.53311 10.8 14.1998C10.1334 16.3331 10.2667 18.4665 11.0667 20.4665C11.2 20.5998 11.2 20.8665 11.2 20.9999C8.00004 34.4666 7.73338 36.5999 7.60004 39.1333C7.60004 39.6666 7.60004 40.2 7.60004 40.7333H11.4667C12.9334 37.9333 13.2 35.2666 14.6667 29.2666C14.6667 29.1332 14.6667 28.9999 14.8 28.8666C15.0667 29.1332 15.2 29.5332 15.4667 29.7999C18.8 33.1332 26 32.8666 30.4 27.2666C34.2667 22.4665 34.5333 15.7998 34.1333 12.9998C33.2 7.26643 28.2667 1.93307 20.5334 0.999728Z" fill="white"/>
</svg>
