<svg width="36" height="36" viewBox="0 0 36 36" fill="none" xmlns="http://www.w3.org/2000/svg">
<path d="M0.475693 12.2072V23.9751H8.32095L18.1275 33.7817V2.40059L8.32095 12.2072H0.475693ZM14.2049 11.8738V24.3085L9.94884 20.0524H4.39832V16.1298H9.94884L14.2049 11.8738ZM26.9534 18.0911C26.9534 14.6196 24.9529 11.6384 22.0501 10.187V25.9756C24.9529 24.5439 26.9534 21.5627 26.9534 18.0911ZM22.0501 0.890381V4.93069C27.7183 6.61743 31.8567 11.8738 31.8567 18.0911C31.8567 24.3085 27.7183 29.5648 22.0501 31.2516V35.2919C29.915 33.5071 35.7793 26.4856 35.7793 18.0911C35.7793 9.69669 29.915 2.67518 22.0501 0.890381Z" fill="white"/>
</svg>
