<svg width="27" height="22" viewBox="0 0 27 22" fill="none" xmlns="http://www.w3.org/2000/svg">
<path d="M26.1982 2.86626C25.3982 3.26625 24.4649 3.39957 23.5316 3.66623C23.9316 3.5329 24.5982 2.86626 24.8649 2.46627C25.2649 1.93295 25.5315 1.39964 25.7982 0.866326V0.732989H25.6648C24.7316 1.2663 23.665 1.66629 22.5984 1.93295C22.465 1.93295 22.465 1.93295 22.3317 1.93295C22.1984 1.79962 22.1984 1.79963 22.065 1.6663C21.6651 1.26631 21.1318 0.999647 20.5985 0.732989C19.9318 0.466331 19.1319 0.333008 18.3319 0.333008C17.532 0.333008 16.8653 0.599666 16.1987 0.999653C15.5321 1.39964 14.8655 1.79962 14.4655 2.46627C13.9322 3.13291 13.6655 3.79956 13.3989 4.59953C13.2655 5.39951 13.2655 6.06616 13.3989 6.86613C13.3989 6.99946 13.3989 6.99946 13.2655 6.99946C8.99912 6.33281 5.39932 4.8662 2.59947 1.53297C2.46615 1.39964 2.46615 1.39964 2.33282 1.53297C1.13289 3.39958 1.66619 6.46614 3.2661 7.93276C3.53275 8.06609 3.66608 8.33275 3.93273 8.46607C3.7994 8.46607 2.86612 8.33274 1.93284 7.93276C1.79952 7.79943 1.79952 7.93275 1.79952 8.06608C1.79952 8.33274 1.79952 8.46607 1.79952 8.73273C2.06617 10.5993 3.39943 12.4659 5.13266 13.1326C5.39932 13.2659 5.53264 13.2659 5.79929 13.3992C5.39932 13.5326 4.99934 13.5326 3.79941 13.3992C3.66608 13.3992 3.53275 13.3993 3.66608 13.5326C4.59936 15.9325 6.46592 16.7325 7.93251 17.1325C8.06583 17.1325 8.33249 17.1325 8.46581 17.2658C7.93251 17.9324 6.3326 18.5991 5.53264 18.8657C4.19938 19.3991 2.59947 19.5324 1.13289 19.399C0.866236 19.399 0.866236 19.399 0.73291 19.399C0.73291 19.399 0.732909 19.5324 0.866235 19.5324C1.13289 19.6657 1.53287 19.9324 1.79952 20.0657C2.7328 20.599 3.66608 20.999 4.73269 21.2657C10.0657 22.7323 15.9321 21.6656 19.9318 17.6658C22.9983 14.5992 24.1983 10.3327 24.1983 6.06615C24.1983 5.93282 24.3316 5.7995 24.4649 5.66617C25.2649 4.99952 25.9315 4.33288 26.5981 3.53291C26.3315 3.13292 26.3315 2.99959 26.1982 2.86626C26.3315 2.86626 26.3315 2.99959 26.1982 2.86626C26.3315 2.86626 26.3315 2.86626 26.1982 2.86626Z" fill="white"/>
</svg>
