<svg width="28" height="28" viewBox="0 0 28 28" fill="none" xmlns="http://www.w3.org/2000/svg">
<path d="M0.199219 27.7305L2.19911 20.3977C1.1325 18.3978 0.465873 16.1313 0.465873 13.8648C0.465873 6.39858 6.59889 0.265625 14.0652 0.265625C21.5314 0.265625 27.6645 6.39858 27.6645 13.8648C27.6645 21.3309 21.5314 27.4639 14.0652 27.4639C11.7986 27.4639 9.53207 26.9306 7.53217 25.864L0.199219 27.7305ZM8.06548 22.9308L8.59878 23.1975C10.332 24.2641 12.3319 24.7974 14.1985 24.7974C20.3315 24.7974 25.2646 19.8644 25.2646 13.7314C25.2646 7.59849 20.3315 2.66549 14.1985 2.66549C8.06548 2.66549 3.1324 7.59849 3.1324 13.7314C3.1324 15.7313 3.66571 17.7312 4.73232 19.4644L4.99897 19.9977L3.93236 24.1308L8.06548 22.9308Z" fill="white"/>
<path fill-rule="evenodd" clip-rule="evenodd" d="M19.1317 15.5982C18.5984 15.1983 17.7984 14.9316 17.1318 15.1983C16.5985 15.4649 16.3318 16.2649 15.9319 16.6649C15.7985 16.9315 15.5319 16.9315 15.2652 16.7982C13.3987 15.9983 11.9321 14.7983 10.8654 13.0651C10.7321 12.7984 10.7321 12.5317 10.9988 12.2651C11.2654 11.8651 11.6654 11.4651 11.7987 10.9318C11.9321 10.3985 11.6654 9.86525 11.3987 9.33195C11.1321 8.79864 10.8654 7.99866 10.1988 7.59868C9.6655 7.33203 8.99887 7.46537 8.46557 7.86535C7.66561 8.53198 7.26562 9.59859 7.26562 10.5319C7.26562 10.7985 7.26563 11.0652 7.39895 11.3318C7.53228 11.9985 7.93226 12.6651 8.19891 13.1984C8.46556 13.5984 8.73222 14.1317 8.99887 14.5316C10.0655 15.8649 11.2654 17.0648 12.732 17.9981C13.532 18.3981 14.1986 18.7981 15.1319 19.0647C16.0652 19.3314 16.8651 19.7314 17.7984 19.4647C18.865 19.3314 19.7983 18.6647 20.3316 17.5981C20.465 17.3315 20.465 16.9315 20.465 16.6649C20.5983 16.3982 19.665 15.9982 19.1317 15.5982Z" fill="white"/>
</svg>
